<svg xmlns="http://www.w3.org/2000/svg" viewBox="0 0 900 360" role="img" aria-labelledby="title desc">
  <title id="title">Logo URE Itapeva</title>
  <desc id="desc">Marca vetorial da Unidade Regional de Ensino de Itapeva.</desc>
  <rect width="900" height="360" fill="none"/>
  <g transform="translate(42 26)">
    <polygon points="78,0 0,38 78,72 158,38" fill="#ee1c25"/>
    <polygon points="78,0 158,38 158,78 78,108" fill="#c8171e"/>
    <polygon points="0,38 78,72 78,108 0,76" fill="#ff232c"/>
    <polygon points="0,108 78,78 158,108 78,136" fill="#000"/>
    <polygon points="0,176 78,146 158,176 78,206" fill="#d71920"/>
    <polygon points="78,206 158,176 158,246 78,284" fill="#cf171d"/>
    <polygon points="0,176 78,206 78,284 0,246" fill="#050505"/>
    <polygon points="0,260 78,296 158,260 158,308 78,338 0,308" fill="#050505"/>
    <polygon points="0,246 78,284 158,246 158,274 78,310 0,274" fill="#d7d7d7"/>
  </g>
  <g fill="#f5f7fb" font-family="Arial, Helvetica, sans-serif">
    <text x="260" y="72" font-size="28" font-weight="800" letter-spacing="2">BURI</text>
    <text x="260" y="108" font-size="28" font-weight="800" letter-spacing="2">CAPAO BONITO</text>
    <text x="260" y="144" font-size="28" font-weight="800" letter-spacing="2">ITAPEVA</text>
    <text x="260" y="180" font-size="28" font-weight="800" letter-spacing="2">NOVA CAMPINA</text>
    <text x="260" y="216" font-size="28" font-weight="800" letter-spacing="2">RIBEIRAO GRANDE</text>
    <text x="260" y="252" font-size="28" font-weight="800" letter-spacing="2">TAQUARIVAI</text>
    <text x="260" y="330" font-size="100" font-weight="900" letter-spacing="4">URE</text>
  </g>
</svg>
